<svg class="img-fluid" id="outputsvg" xmlns="http://www.w3.org/2000/svg" width="534" height="534" viewBox="0 1000 5340 5340"><g id="l1bJvw0ZHmICIlSDtXxAfox" fill="rgb(33,33,33)" style="transform: none;"><g><path id="pXsm5bLWK" d="M1040 3895 c0 -10 -10 -15 -30 -15 -22 0 -30 -5 -30 -18 0 -9 219 -236 498 -515 l497 -497 278 0 278 0 -3 34 c-3 30 -58 88 -489 515 l-487 481 -106 0 c-88 0 -106 3 -106 15 0 13 -23 15 -150 15 -127 0 -150 -2 -150 -15z"></path><path id="pTUV85Haj" d="M1920 3877 c0 -29 45 -77 498 -530 l497 -497 70 0 c59 0 72 3 83 20 11 19 23 20 182 20 l170 0 0 32 c0 30 -44 77 -477 510 l-478 478 -272 0 -273 0 0 -33z"></path><path id="pYROXw4k1" d="M3130 3895 c0 -13 -22 -15 -140 -15 -127 0 -140 -2 -140 -18 0 -22 830 -852 853 -852 16 0 17 21 17 288 l0 287 -163 163 -162 162 -133 0 c-111 0 -132 -2 -132 -15z"></path><path id="p1GU85JFpI" d="M750 3432 l0 -287 128 -128 127 -127 188 0 c175 0 188 -1 204 -20 15 -17 30 -20 105 -20 l88 0 0 33 c0 29 -37 69 -403 435 -222 222 -410 402 -420 402 -16 0 -17 -21 -17 -288z"></path></g></g><g id="l4k7LJNDICLs9KGLezS7P1o" fill="rgb(43,57,152)" style="transform: none;"><g><path id="pz1Fqu3Hl" d="M363 5038 c7 -148 23 -214 82 -334 81 -166 241 -311 468 -425 67 -33 125 -65 128 -70 3 -6 21 -1 43 12 55 32 101 40 153 24 67 -20 83 -39 83 -97 0 -43 13 -65 22 -38 4 12 184 -26 206 -42 9 -8 12 -3 12 22 0 20 -48 136 -130 312 -72 155 -129 283 -127 284 2 2 76 -26 166 -61 90 -36 177 -65 195 -65 29 1 40 15 216 277 102 152 186 287 188 300 l3 23 -857 0 -857 0 6 -122z"></path><path id="p17VcjfpEC" d="M2412 5136 c3 -13 92 -145 199 -294 226 -316 200 -299 360 -233 52 22 117 49 146 60 l52 20 -8 -22 c-5 -12 -64 -139 -130 -281 -81 -174 -121 -271 -121 -294 0 -31 2 -33 16 -21 9 7 57 23 106 35 74 18 91 19 95 8 11 -30 22 -11 25 43 3 53 5 58 37 77 50 29 124 27 185 -4 36 -18 50 -22 54 -12 2 7 48 35 102 61 109 55 166 89 223 133 21 17 44 27 52 24 22 -8 19 31 -5 61 -29 37 -25 76 10 116 18 21 30 46 30 62 0 16 -12 41 -30 62 -16 18 -30 45 -30 58 0 13 14 40 30 58 40 46 38 71 -15 197 l-43 105 -672 3 -672 2 4 -24z"></path><path id="phKed9Aw" d="M4290 5134 c0 -15 5 -55 12 -90 l11 -63 88 1 c76 1 94 -2 142 -26 92 -44 157 -134 188 -258 12 -52 28 -60 45 -25 6 12 26 47 43 78 46 82 71 193 71 311 l0 98 -300 0 -300 0 0 -26z"></path></g></g><g id="l1ip4prl9ZLHVk5M1fVgU9s" fill="rgb(47,120,137)" style="transform: none;"><g><path id="p97mmks3L" d="M4530 4053 c0 -10 16 -119 37 -243 23 -140 34 -236 29 -253 -10 -40 -73 -66 -185 -75 l-89 -7 19 -61 19 -62 -78 -78 c-106 -106 -172 -243 -172 -356 0 -37 1 -38 34 -38 31 0 37 5 67 56 104 183 266 318 444 369 125 37 285 3 395 -84 38 -30 61 -41 86 -41 l35 0 -18 31 c-51 88 -204 186 -339 217 l-78 18 -33 104 c-18 58 -58 198 -90 313 -37 132 -62 207 -70 207 -7 0 -13 -8 -13 -17z"></path><path id="pVFXolMy" d="M4830 2945 c0 -8 6 -15 13 -15 6 0 45 -60 86 -133 41 -72 82 -140 90 -151 20 -22 124 -76 149 -76 20 0 42 18 42 36 0 6 -46 84 -101 173 -69 110 -109 165 -126 172 -13 5 -53 9 -89 9 -50 0 -64 -3 -64 -15z"></path></g></g><g id="l42WAFqenR1G5dZvVCWOaDA" fill="rgb(84,99,187)" style="transform: none;"><g><path id="pTSeubJSy" d="M2085 5163 l-40 -4 -183 -272 c-100 -150 -186 -278 -191 -285 -6 -9 -60 8 -225 74 -119 47 -219 85 -221 83 -3 -4 280 -619 308 -671 17 -30 98 -59 240 -83 53 -10 86 -21 95 -32 7 -10 15 -13 20 -7 9 9 303 1159 302 1180 0 14 -24 25 -48 22 -9 -1 -35 -3 -57 -5z"></path><path id="pHjRVLqBX" d="M2293 5163 c-7 -3 -13 -12 -13 -21 0 -40 296 -1182 306 -1182 7 0 14 6 17 13 3 8 37 19 79 26 94 16 235 59 245 74 21 32 320 687 315 687 -4 0 -96 -37 -205 -81 -109 -45 -199 -80 -201 -78 -2 2 -92 128 -201 279 -108 151 -198 275 -198 276 -7 5 -135 11 -144 7z"></path><path id="p0Cu8YBEL" d="M3710 5156 c0 -2 22 -57 49 -122 l50 -119 -25 -26 c-50 -52 -50 -136 0 -188 l26 -27 -25 -24 c-30 -28 -49 -90 -40 -131 9 -39 35 -38 35 1 0 51 23 110 42 110 14 0 18 8 18 35 0 28 -4 35 -19 35 -14 0 -20 10 -25 38 -14 80 -2 152 25 152 31 0 24 49 -23 165 -37 90 -46 105 -65 105 -13 0 -23 -2 -23 -4z"></path><path id="p11fW3TFla" d="M4284 5128 c3 -18 8 -52 12 -75 5 -33 11 -43 25 -43 22 0 23 3 7 86 -9 53 -15 64 -31 64 -16 0 -18 -5 -13 -32z"></path><path id="p4uIH2htz" d="M4368 5014 c-10 -3 -18 -12 -18 -20 0 -10 15 -14 60 -14 63 0 150 -19 150 -32 0 -4 7 -8 15 -8 8 0 15 -4 15 -10 0 -5 11 -10 25 -10 20 0 25 -5 25 -25 0 -13 6 -28 13 -32 7 -4 21 -27 31 -50 11 -24 22 -43 26 -43 4 0 11 -25 15 -55 5 -45 10 -55 26 -55 24 0 24 21 0 99 -36 115 -98 193 -186 232 -42 19 -164 33 -197 23z"></path><path id="piTcD4ETG" d="M1125 4281 c-37 -9 -95 -39 -95 -49 1 -32 50 -41 50 -9 0 27 161 37 186 12 9 -8 32 -15 51 -15 36 0 36 0 18 20 -35 38 -138 58 -210 41z"></path><path id="py5kzJkTW" d="M3187 4276 c-40 -15 -67 -33 -67 -47 0 -14 52 -10 80 6 14 8 35 14 48 15 15 0 22 6 22 20 0 24 -27 26 -83 6z"></path><path id="pPyRWRyQr" d="M3290 4270 c0 -16 7 -20 35 -20 19 0 35 -4 35 -10 0 -5 6 -10 14 -10 8 0 16 -7 20 -15 8 -21 33 -19 39 5 5 21 -17 39 -72 58 -50 18 -71 15 -71 -8z"></path></g></g><g id="l66vPnMtIVZQfLNdkhSENKg" fill="rgb(255,87,34)" style="transform: none;"><g><path id="pSAy7gGZL" d="M1076 2635 c-46 -16 -101 -67 -127 -117 -29 -58 -27 -209 4 -269 51 -96 159 -141 291 -121 89 14 140 48 178 121 24 46 28 65 28 139 0 66 -5 95 -21 129 -25 53 -86 106 -138 121 -52 16 -167 14 -215 -3z m160 -185 c22 0 24 -4 24 -44 0 -30 -5 -46 -15 -50 -8 -3 -15 -12 -15 -21 0 -11 -11 -15 -40 -15 -34 0 -40 3 -40 20 0 11 -6 23 -13 26 -8 3 -11 18 -9 44 3 33 8 39 30 43 15 2 33 2 40 0 8 -1 25 -3 38 -3z"></path><path id="pE5LeQH4l" d="M3166 2635 c-46 -16 -101 -67 -127 -117 -29 -58 -27 -209 4 -269 51 -96 159 -141 291 -121 89 14 140 48 178 121 24 45 28 65 28 130 0 42 -5 93 -11 115 -14 51 -91 128 -145 144 -54 16 -169 15 -218 -3z m154 -195 c22 0 33 -65 13 -82 -7 -6 -13 -17 -13 -24 0 -10 -13 -14 -40 -14 -27 0 -40 4 -40 14 0 7 -6 18 -13 24 -8 7 -11 25 -9 46 3 29 9 36 31 39 14 2 32 2 39 0 8 -1 22 -3 32 -3z"></path></g></g><g id="l3VoRBGBDFKccTE11q55FOf" fill="rgb(226,166,16)" style="transform: none;"><g><path id="p14qhzN81w" d="M3760 4851 c-16 -31 -12 -51 10 -51 16 0 20 7 20 35 0 39 -14 46 -30 16z"></path><path id="pRNGsjwOq" d="M4700 4803 c0 -51 11 -73 35 -73 21 0 23 3 15 29 -19 68 -50 95 -50 44z"></path><path id="pZdCdAfgo" d="M3760 4741 c0 -6 11 -23 25 -38 l24 -28 1 38 c0 33 -3 37 -25 37 -14 0 -25 -4 -25 -9z"></path><path id="p1GOwoFtkC" d="M4730 4665 c0 -41 26 -49 36 -11 7 29 -1 46 -22 46 -9 0 -14 -11 -14 -35z"></path><path id="p6hlyfANE" d="M1915 4203 c-37 -151 -48 -213 -46 -260 2 -52 -1 -63 -13 -63 -9 0 -16 -7 -16 -15 0 -10 10 -15 33 -15 29 0 77 -45 532 -500 455 -455 503 -500 532 -500 23 0 33 5 33 15 0 8 -6 15 -13 15 -6 0 -237 225 -512 500 l-500 500 246 0 c207 0 249 -2 259 -15 9 -11 34 -15 96 -15 68 0 84 3 84 15 0 8 -7 15 -15 15 -12 0 -15 14 -15 68 1 49 -12 118 -48 257 l-48 190 -270 3 -269 2 -50 -197z"></path><path id="pb5quN5F8" d="M3340 3895 c0 -8 6 -15 12 -15 7 0 93 -80 190 -177 176 -176 178 -177 178 -143 0 32 -14 49 -158 193 -138 138 -161 157 -190 157 -22 0 -32 -5 -32 -15z"></path><path id="pm3GBEKqr" d="M1895 3482 c376 -373 400 -395 403 -368 3 27 -29 62 -365 398 -344 344 -370 368 -403 368 -34 0 -23 -12 365 -398z"></path><path id="p1Fglgkj4N" d="M750 3713 c0 -10 182 -200 407 -425 361 -361 405 -408 379 -408 -24 0 -27 -2 -16 -15 7 -8 28 -15 46 -15 32 0 34 2 34 33 0 29 -38 70 -408 440 -225 225 -415 407 -425 407 -9 0 -17 -8 -17 -17z"></path><path id="puec4eCW4" d="M750 3170 c0 -31 11 -46 94 -129 82 -81 92 -96 80 -108 -8 -8 -14 -34 -14 -58 0 -37 3 -44 22 -47 19 -2 24 -12 30 -53 17 -106 -10 -95 227 -95 l209 0 6 28 c3 15 8 48 12 74 5 38 10 47 28 50 24 3 37 48 14 48 -7 0 -21 9 -31 20 -16 19 -29 20 -204 20 l-188 0 -142 142 -143 143 0 -35z"></path><path id="p1E03X3X0d" d="M3355 2960 l39 -40 -172 0 c-161 0 -173 -1 -184 -20 -7 -11 -18 -20 -25 -20 -7 0 -13 -11 -13 -24 0 -18 6 -26 22 -28 19 -2 24 -12 30 -53 17 -106 -10 -95 227 -95 l209 0 6 28 c3 15 8 48 12 75 5 37 10 47 25 47 16 0 19 8 19 50 0 57 -14 70 -78 70 -28 0 -45 7 -62 25 -16 18 -34 25 -59 25 l-35 0 39 -40z"></path><path id="p50OdlqzC" d="M1068 2638 c-16 -5 -28 -14 -28 -19 0 -5 -6 -9 -13 -9 -18 0 -61 -47 -83 -90 -26 -52 -31 -174 -9 -239 9 -29 23 -55 31 -58 8 -3 14 -12 14 -19 0 -8 8 -18 17 -21 9 -4 24 -14 34 -24 25 -25 83 -39 158 -39 66 0 141 17 141 32 0 4 7 8 15 8 9 0 15 9 15 25 0 20 5 25 25 25 53 0 89 139 66 252 -13 60 -61 138 -86 138 -8 0 -15 5 -15 11 0 15 -64 39 -105 39 -51 0 -45 -25 10 -40 139 -39 206 -200 137 -331 -85 -164 -322 -163 -409 0 -30 57 -32 154 -4 210 28 54 93 109 146 122 57 14 62 39 8 38 -21 0 -50 -5 -65 -11z"></path><path id="psdIKy3ag" d="M3158 2638 c-16 -5 -28 -14 -28 -19 0 -5 -6 -9 -13 -9 -18 0 -61 -47 -83 -90 -26 -52 -31 -174 -9 -239 9 -29 23 -55 31 -58 8 -3 14 -12 14 -19 0 -8 8 -18 17 -21 9 -4 24 -14 34 -24 25 -25 83 -39 158 -39 66 0 141 17 141 32 0 4 7 8 15 8 9 0 15 9 15 25 0 20 5 25 25 25 53 0 89 140 65 254 -6 32 -20 66 -29 75 -10 10 -21 25 -24 35 -4 10 -16 20 -27 23 -11 3 -20 9 -20 14 0 5 -7 9 -16 9 -8 0 -22 7 -30 15 -9 8 -33 15 -55 15 -56 0 -51 -24 8 -41 64 -17 137 -90 153 -150 18 -64 8 -138 -24 -193 -89 -152 -320 -144 -403 13 -30 57 -32 154 -4 210 28 54 93 109 146 122 57 14 62 39 8 38 -21 0 -50 -5 -65 -11z"></path></g></g><g id="l2blTcLfkGmGewXumLvPhUS" fill="rgb(255,214,0)" style="transform: none;"><g><path id="p5zU8rTq0" d="M4310 5032 c-52 -6 -138 -36 -232 -79 -107 -48 -155 -55 -206 -29 -35 18 -77 22 -67 5 4 -6 -2 -20 -13 -32 -51 -54 -55 -126 -11 -187 27 -38 29 -44 15 -52 -44 -24 -62 -140 -30 -187 9 -13 32 -30 51 -37 l34 -15 -22 -30 c-25 -36 -29 -90 -10 -136 14 -34 62 -63 104 -63 25 0 25 -1 20 -55 -4 -37 -1 -64 7 -80 19 -36 86 -65 148 -65 38 0 54 -4 58 -15 15 -39 186 12 302 90 68 45 77 55 75 80 -2 23 11 42 61 96 72 76 151 220 160 291 11 89 13 153 4 187 -5 20 -10 41 -11 46 -11 41 -62 130 -94 162 -61 61 -104 77 -215 81 -62 3 -98 8 -100 15 -2 7 -14 11 -28 9z"></path><path id="p12C5XmLSa" d="M3350 3895 c0 -8 6 -15 12 -15 7 0 90 -78 185 -172 l173 -173 0 146 c0 198 4 193 -164 197 -101 3 -126 6 -126 18 0 10 -12 14 -40 14 -29 0 -40 -4 -40 -15z"></path><path id="pj87ltcV5" d="M785 3868 c-31 -17 -35 -28 -35 -98 l0 -65 412 -412 c365 -365 410 -413 384 -413 -24 0 -27 -2 -16 -15 19 -23 500 -23 500 0 0 8 -6 15 -13 15 -6 0 -237 225 -512 500 l-500 500 -100 0 c-56 0 -109 -6 -120 -12z"></path><path id="pyvVOsWXQ" d="M2005 3380 c441 -441 497 -500 471 -500 -24 0 -27 -2 -16 -15 19 -23 500 -23 500 0 0 8 -6 15 -13 15 -6 0 -237 225 -512 500 l-500 500 -215 0 -215 0 500 -500z"></path><path id="p1DK4qDjRJ" d="M2916 3400 l481 -480 42 0 c55 0 81 -15 81 -45 0 -25 1 -25 94 -25 110 0 106 -4 106 108 l0 77 -423 423 -422 422 -220 0 -220 0 481 -480z"></path><path id="pol43Q9lB" d="M752 3025 l3 -170 91 -3 91 -3 6 30 c5 23 13 31 42 37 l35 9 -135 135 -135 135 2 -170z"></path></g></g><g id="l1BX1Sc9oTUl9ReUcxkQA4k" fill="rgb(158,158,158)" style="transform: none;"><g><path id="pKbOE9cDR" d="M2470 4390 c0 -14 7 -20 21 -20 15 0 19 4 15 16 -3 9 -6 18 -6 20 0 2 -7 4 -15 4 -8 0 -15 -9 -15 -20z"></path><path id="p1GVJcSruR" d="M1960 4380 c0 -5 7 -10 15 -10 8 0 15 5 15 10 0 6 -7 10 -15 10 -8 0 -15 -4 -15 -10z"></path><path id="pOSuw0L9X" d="M3215 4281 c-54 -14 -95 -41 -95 -61 0 -27 40 -27 47 -1 7 29 118 40 176 17 81 -31 116 -12 50 26 -34 20 -133 31 -178 19z"></path><path id="pSAL7NBM1" d="M1085 4266 c-17 -7 -36 -20 -44 -29 -12 -15 -10 -17 15 -17 45 0 94 22 94 42 0 21 -22 23 -65 4z"></path><path id="pXfkdfEq3" d="M1220 4260 c0 -16 7 -20 35 -20 24 0 35 -5 35 -15 0 -8 5 -15 10 -15 6 0 10 -11 10 -25 0 -19 5 -25 21 -25 17 0 20 5 17 37 -3 32 -9 41 -43 60 -51 29 -85 30 -85 3z"></path><path id="p11LI3KBtJ" d="M1040 3985 l0 -105 150 0 150 0 0 105 c0 116 -2 120 -62 89 -55 -28 -89 -34 -134 -23 -24 6 -49 17 -55 25 -6 8 -20 14 -30 14 -17 0 -19 -9 -19 -105z"></path><path id="pZfohLieN" d="M3130 3985 l0 -105 150 0 150 0 0 105 c0 116 -2 120 -63 88 -68 -35 -146 -34 -188 3 -8 8 -23 14 -32 14 -15 0 -17 -14 -17 -105z"></path><path id="p6K7MjOba" d="M750 2888 c0 -45 28 -58 119 -58 72 0 82 2 77 16 -3 9 -6 20 -6 25 0 5 -35 9 -77 9 -57 0 -81 4 -95 17 -17 15 -18 15 -18 -9z"></path><path id="piDkR6fAk" d="M3699 2894 c-10 -12 -30 -15 -96 -12 l-83 3 0 -27 0 -28 80 0 c67 0 83 3 100 20 11 11 20 29 20 40 0 24 -4 25 -21 4z"></path><path id="pPJPsRUHv" d="M1437 2873 c-4 -3 -7 -15 -7 -25 0 -17 31 -18 806 -18 731 0 806 1 800 16 -3 9 -6 20 -6 25 0 10 -1583 13 -1593 2z"></path></g></g><g id="l61WJzw8LLDxxbR1WGowRdY" fill="rgb(206,188,80)" style="transform: none;"><g><path id="p1AgmpRs4w" d="M4235 5021 c-33 -9 -102 -36 -153 -60 -111 -51 -156 -60 -200 -37 -35 18 -87 22 -77 5 4 -6 -3 -23 -16 -37 l-23 -27 23 22 c23 21 25 21 55 5 20 -11 54 -16 96 -16 56 0 79 7 165 46 106 49 192 77 234 79 14 0 20 3 14 6 -7 2 -13 11 -13 19 0 18 -30 17 -105 -5z"></path><path id="pj9VpXTEA" d="M4470 4124 c-69 -55 -160 -100 -247 -122 -56 -14 -68 -21 -65 -35 3 -16 10 -17 45 -12 92 15 267 90 267 115 0 4 9 10 20 13 11 3 20 12 20 21 0 9 7 16 15 16 16 0 20 18 7 36 -4 7 -26 -4 -62 -32z"></path><path id="pAXT9l4hp" d="M2890 3425 c250 -250 457 -455 460 -455 3 0 -200 205 -450 455 -250 250 -457 455 -460 455 -3 0 200 -205 450 -455z"></path><path id="ppisRP12v" d="M3100 3645 c129 -129 237 -235 240 -235 3 0 -101 106 -230 235 -129 129 -237 235 -240 235 -3 0 101 -106 230 -235z"></path><path id="p18mLEj5rR" d="M3520 2865 c0 -13 3 -16 8 -8 4 7 38 13 82 15 l75 3 -83 5 c-77 5 -82 4 -82 -15z"></path><path id="p1DZio5iL8" d="M828 2873 c23 -2 59 -2 80 0 20 2 1 4 -43 4 -44 0 -61 -2 -37 -4z"></path><path id="p16eZsZFzX" d="M1678 2873 c61 -2 163 -2 225 0 61 1 11 3 -113 3 -124 0 -174 -2 -112 -3z"></path><path id="pj9JI3rsA" d="M2613 2873 c65 -2 168 -2 230 0 62 1 9 3 -118 3 -126 0 -177 -2 -112 -3z"></path></g></g><g id="l1LinIekGBTNDBT1NU87Ovc" fill="rgb(130,174,192)" style="transform: none;"><g><path id="pcQvDV0aJ" d="M2160 5163 c0 -2 -45 -180 -100 -395 -55 -215 -100 -392 -100 -394 0 -2 9 -4 20 -4 14 0 22 10 29 38 15 56 191 746 191 748 0 1 -9 4 -20 7 -11 3 -20 3 -20 0z"></path><path id="pNYJgK2yq" d="M2287 5162 c-22 -5 -31 38 87 -422 81 -320 95 -365 112 -365 10 0 18 5 17 10 -2 14 -195 780 -197 781 0 0 -9 -1 -19 -4z"></path><path id="pB3sS76Vk" d="M3763 5036 c47 -116 53 -126 88 -142 63 -28 146 -16 264 38 55 25 126 53 158 61 33 9 61 17 63 19 2 2 -2 35 -9 74 l-13 69 -301 3 -301 2 51 -124z"></path><path id="pcNHafqg4" d="M4465 4115 c-70 -55 -163 -100 -236 -117 -30 -6 -58 -15 -62 -19 -5 -4 31 -125 79 -269 l88 -263 96 6 c164 9 218 47 205 145 -33 236 -89 536 -105 555 -3 4 -32 -13 -65 -38z"></path><path id="pZI0ZKPQN" d="M4694 3350 c-199 -29 -394 -175 -513 -384 -35 -61 -47 -68 -61 -33 -16 40 -11 -154 5 -217 64 -246 301 -435 546 -436 98 0 97 5 -35 212 l-117 181 31 63 c57 116 166 186 300 192 41 2 87 -1 102 -7 19 -7 54 -54 125 -168 54 -86 101 -164 104 -172 8 -21 31 17 60 99 32 90 33 265 2 358 -24 73 -82 172 -99 172 -7 0 -36 19 -64 41 -67 53 -145 85 -243 98 -43 6 -81 10 -85 10 -4 -1 -30 -5 -58 -9z"></path></g></g><g id="luXSw0r9oXlL32IzE4N4y4" fill="rgb(255,202,40)" style="transform: none;"><g><path id="pVzIw35Wk" d="M980 2689 c6 -11 18 -23 26 -26 11 -4 4 -16 -30 -49 -55 -52 -83 -105 -94 -176 -30 -196 115 -363 315 -362 79 1 176 46 228 106 107 126 97 315 -24 432 -39 38 -40 40 -21 53 11 8 20 21 20 29 0 12 -34 14 -215 14 -215 0 -216 0 -205 -21z m296 -79 c48 -18 102 -69 125 -117 82 -169 -55 -362 -241 -340 -238 28 -285 357 -65 453 36 16 143 18 181 4z"></path><path id="pwJX65NrU" d="M3070 2689 c6 -11 18 -23 26 -26 11 -4 4 -16 -30 -49 -136 -130 -133 -334 7 -460 161 -145 421 -80 498 125 43 114 11 248 -80 335 -39 38 -40 40 -21 53 11 8 20 21 20 29 0 12 -34 14 -215 14 -215 0 -216 0 -205 -21z m325 -98 c60 -35 100 -88 115 -154 35 -157 -99 -303 -260 -284 -238 28 -285 357 -65 453 17 7 59 13 95 14 54 0 74 -5 115 -29z"></path></g></g><g id="l2Y6t5T7uCqMRVSTXtNEDoP" fill="rgb(189,189,189)" style="transform: none;"><g><path id="pM9s2Qnfb" d="M2116 4975 c-25 -101 -46 -189 -46 -195 0 -5 8 -10 18 -10 15 0 25 30 60 173 46 184 50 217 28 217 -9 0 -28 -57 -60 -185z"></path><path id="prz5WjBhQ" d="M2270 5153 c0 -5 14 -68 32 -140 26 -109 35 -133 50 -133 10 0 18 3 18 8 0 4 -14 67 -32 140 -26 108 -35 132 -50 132 -10 0 -18 -3 -18 -7z"></path><path id="pJDdUMpkz" d="M2380 4738 c0 -13 19 -101 42 -195 35 -143 45 -173 60 -173 10 0 18 5 18 10 0 6 -21 94 -46 195 -32 128 -51 185 -60 185 -8 0 -14 -10 -14 -22z"></path><path id="p14pWWguy6" d="M2002 4529 c-39 -155 -39 -160 -19 -157 18 3 26 22 54 133 36 144 40 185 19 185 -9 0 -26 -50 -54 -161z"></path><path id="p2juwJfZU" d="M1081 4258 l-45 -23 3 -85 c3 -100 11 -113 83 -130 60 -15 124 -8 177 19 35 18 39 25 45 70 17 125 -15 162 -144 168 -64 4 -82 1 -119 -19z"></path><path id="p156CIqmHU" d="M3175 4266 c-52 -23 -59 -38 -51 -123 7 -90 19 -107 87 -123 59 -14 128 -6 181 21 l38 19 0 91 0 90 -42 19 c-51 23 -167 26 -213 6z"></path></g></g><g id="l6fWyWXQjz7pE7DG8NFd2Hx" fill="rgb(255,213,202)" style="transform: none;"><g><path id="pdjxy7kAB" d="M1174 2543 c-12 -64 -31 -73 -90 -45 -25 13 -48 21 -51 18 -2 -2 12 -25 32 -51 41 -55 38 -65 -35 -99 l-45 -21 65 -5 c65 -5 65 -5 64 -35 0 -16 -4 -48 -8 -70 l-7 -40 21 27 c53 67 56 71 76 64 10 -3 32 -24 48 -47 15 -22 30 -38 33 -35 3 3 0 28 -7 57 -12 48 -11 53 6 66 13 10 35 13 67 10 26 -2 47 -1 47 3 0 4 -23 17 -50 28 -60 25 -64 45 -19 97 38 43 32 55 -16 32 -66 -32 -90 -20 -101 51 -4 23 -10 42 -14 42 -3 0 -11 -21 -16 -47z"></path><path id="pZhl0r0vL" d="M3265 2541 c-10 -73 -24 -80 -91 -48 -30 15 -54 23 -54 18 0 -5 16 -28 35 -51 43 -52 37 -69 -37 -98 l-53 -21 61 0 c82 -1 90 -11 70 -88 l-15 -58 42 48 c23 26 47 47 54 47 6 0 28 -20 49 -45 20 -25 39 -44 41 -42 2 2 -2 27 -8 55 -17 71 -4 86 68 80 29 -3 53 -2 53 2 0 4 -20 15 -45 25 -66 25 -72 43 -30 96 19 24 35 47 35 51 0 4 -24 -4 -54 -19 -67 -32 -81 -25 -91 48 -4 27 -11 49 -15 49 -4 0 -11 -22 -15 -49z"></path></g></g><g id="l1u7mqdWJtIsVfwd1dRBlQ4" fill="rgb(245,245,245)" style="transform: none;"><g><path id="p9ms0dcDn" d="M2067 4773 c-54 -213 -98 -391 -97 -395 0 -5 120 -8 266 -8 l266 0 -7 29 c-3 16 -48 193 -99 393 l-92 363 -70 3 -69 3 -98 -388z"></path></g></g></svg>